<svg height="480pt" viewBox="0 0 480 480" width="480pt" xmlns="http://www.w3.org/2000/svg"><path d="m296 296h128v136h-128zm0 0" fill="#bdfdff"/><path d="m296 256h128v40h-128zm0 0" fill="#57a4ff"/><path d="m288 368c.019531-5.773438-3.085938-11.105469-8.113281-13.941406-5.027344-2.839844-11.195313-2.738282-16.125.261718.121093-.769531.203125-1.542968.238281-2.320312.019531-5.773438-3.085938-11.105469-8.113281-13.941406-5.027344-2.839844-11.195313-2.738282-16.125.261718.121093-.769531.203125-1.542968.238281-2.320312.019531-5.773438-3.085938-11.105469-8.113281-13.941406-5.027344-2.839844-11.195313-2.738282-16.125.261718.121093-.769531.203125-1.542968.238281-2.320312-.027344-8.824219-7.175781-15.972656-16-16-3.1875.019531-6.300781.964844-8.960938 2.71875-2.214843-6.414062-8.253906-10.714844-15.039062-10.714844s-12.824219 4.300782-15.039062 10.714844c-2.660157-1.753906-5.773438-2.699219-8.960938-2.71875-6.785156.003906-12.820312 4.308594-15.039062 10.71875-2.660157-1.753906-5.773438-2.699219-8.960938-2.71875-8.824219.027344-15.972656 7.175781-16 16 .035156.777344.117188 1.550781.238281 2.320312-4.929687-3-11.097656-3.101562-16.125-.261718-5.027343 2.835937-8.132812 8.167968-8.113281 13.941406-5.773438-.019531-11.105469 3.085938-13.941406 8.113281-2.839844 5.027344-2.738282 11.195313.261718 16.125-.769531-.121093-1.542968-.203125-2.320312-.238281-8.835938 0-16 7.164062-16 16s7.164062 16 16 16h216c8.835938 0 16-7.164062 16-16s-7.164062-16-16-16zm0 0" fill="#ffe477"/><path d="m360 128c0 66.273438-53.726562 120-120 120s-120-53.726562-120-120 53.726562-120 120-120 120 53.726562 120 120zm0 0" fill="#ffdaaa"/><path d="m240 104c11.105469-.035156 20.785156 7.550781 23.402344 18.339844 2.617187 10.792968-2.507813 21.96875-12.394532 27.027344-9.886718 5.054687-21.949218 2.671874-29.167968-5.765626-3.796875-4.308593-5.875-9.859374-5.839844-15.601562 0-13.253906 10.746094-24 24-24zm0 0" fill="#d80027"/><path d="m173.839844 370.160156c3.152344 4.960938 3.332031 11.25.46875 16.378906-2.863282 5.132813-8.3125 8.28125-14.1875 8.203126-5.875-.078126-11.238282-3.375-13.960938-8.582032-4.398437-7.679687-9.839844-31.28125-2.160156-35.761718 7.679688-4.476563 25.441406 12.082031 29.839844 19.761718zm0 0" fill="#7ed63e"/><path d="m312 400c-.015625 8.484375-3.378906 16.621094-9.359375 22.640625-1.996094 1.945313-4.226563 3.640625-6.640625 5.039063-4.859375 2.824218-10.378906 4.316406-16 4.320312h-208c-17.671875 0-32-14.328125-32-32zm0 0" fill="#957856"/><path d="m472 452c.015625 5.308594-2.085938 10.40625-5.839844 14.160156s-8.851562 5.855469-14.160156 5.839844h-424c-11.046875 0-20-8.953125-20-20s8.953125-20 20-20h424c11.046875 0 20 8.953125 20 20zm0 0" fill="#898890"/><g fill="#231f20"><path d="m452 424h-20v-168c0-4.417969-3.582031-8-8-8h-32v-28.6875l29.65625-29.65625-11.3125-11.3125-32 32c-1.5 1.5-2.34375 3.535156-2.34375 5.65625v32h-80c-4.417969 0-8 3.582031-8 8v94.214844c-4.714844-4.320313-10.976562-6.546875-17.359375-6.175782-3.5625-10.066406-13.335937-16.582031-24-16-3.566406-10.0625-13.339844-16.578124-24-16-4.082031-11.605468-16.277344-18.246093-28.242187-15.375-4.539063-5.476562-11.285157-8.644531-18.398438-8.644531s-13.859375 3.167969-18.398438 8.644531c-8.867187-2.03125-18.125 1.054688-24 8-11.960937-2.859374-24.144531 3.777344-28.226562 15.375-11.042969-.570312-21.0625 6.429688-24.328125 16.992188-10.121094 3.0625-17.046875 12.394531-17.046875 22.96875 0 .457031 0 .902344.039062 1.351562-9.601562 3.390626-16.027343 12.464844-16.039062 22.648438.027344 2.730469.523438 5.4375 1.472656 8h-9.472656c-4.417969 0-8 3.582031-8 8 .03125 8.683594 2.914062 17.117188 8.207031 24h-12.207031c-15.464844 0-28 12.535156-28 28s12.535156 28 28 28h424c15.464844 0 28-12.535156 28-28s-12.535156-28-28-28zm-140-32h-1.535156c3.496094-9.070312.90625-19.359375-6.464844-25.695312v-62.304688h72v88h16v-88h24v120h-104.207031c5.292969-6.882812 8.175781-15.316406 8.207031-24 0-4.417969-3.582031-8-8-8zm104-128v24h-24v-24zm-40 0v24h-72v-24zm-312 120c.015625-2.207031.941406-4.308594 2.554688-5.808594 1.617187-1.5 3.78125-2.265625 5.980468-2.121094l.921875.121094c3.015625.324219 5.957031-1.085937 7.59375-3.640625 1.636719-2.558593 1.683594-5.820312.125-8.421875-1.484375-2.46875-1.53125-5.542968-.121093-8.050781 1.414062-2.511719 4.066406-4.066406 6.945312-4.078125 4.417969 0 8-3.582031 8-8 .09375-2.84375 1.664062-5.433594 4.140625-6.828125 2.480469-1.394531 5.507813-1.394531 7.988281.003906 2.617188 1.570313 5.898438 1.511719 8.460938-.148437 2.558594-1.65625 3.953125-4.628906 3.59375-7.660156l-.183594-1.367188c0-4.417969 3.582031-8 8-8 1.628906.019531 3.21875.507812 4.574219 1.40625 2.0625 1.351562 4.632812 1.679688 6.96875.882812 2.332031-.796874 4.167969-2.625 4.976562-4.953124.886719-2.292969 2.757813-4.0625 5.097657-4.824219 2.335937-.761719 4.890624-.433594 6.957031.894531 2.0625 1.351562 4.632812 1.679688 6.96875.882812 2.332031-.796874 4.167969-2.625 4.976562-4.953124 1.101563-3.191407 4.105469-5.332032 7.480469-5.332032s6.378906 2.140625 7.480469 5.332032c.808593 2.328124 2.644531 4.15625 4.976562 4.953124 2.335938.796876 4.90625.46875 6.96875-.882812 1.355469-.898438 2.945313-1.386719 4.574219-1.40625 4.398438 0 7.96875 3.546875 8 7.945312l-.183594 1.421876c-.359375 3.03125 1.035156 6.003906 3.59375 7.660156 2.5625 1.660156 5.84375 1.71875 8.460938.148437 2.46875-1.394531 5.488281-1.402343 7.964844-.019531 2.476562 1.382812 4.054687 3.953125 4.164062 6.789062l-.183594 1.421876c-.359375 3.03125 1.035156 6.003906 3.59375 7.660156 2.5625 1.660156 5.84375 1.71875 8.460938.148437 2.46875-1.398437 5.488281-1.40625 7.96875-.023437 2.476562 1.382812 4.054687 3.957031 4.160156 6.792968l-.183594 1.421876c-.359375 3.03125 1.035156 6.003906 3.59375 7.660156 2.5625 1.660156 5.84375 1.71875 8.460938.148437 2.476562-1.402343 5.507812-1.40625 7.992187-.011719 2.480469 1.398438 4.050781 3.992188 4.136719 6.835938 0 4.417969 3.582031 8 8 8s8 3.582031 8 8-3.582031 8-8 8h-108.480469c5.433594-7.632812 5.929688-17.726562 1.273438-25.855469-4.664063-8.066406-26.480469-30.90625-40.800781-22.640625-14.320313 8.265625-5.449219 38.566406-.800782 46.640625.410156.6875.976563 1.207031 1.441406 1.847657h-68.632812c-4.414062 0-7.996094-3.578126-8-7.992188zm84.335938-26.054688c7.460937 3.746094 13.855468 9.320313 18.59375 16.199219 1.449218 2.476563 1.464843 5.539063.035156 8.03125-1.429688 2.488281-4.085938 4.019531-6.957032 4.015625-2.871093-.007812-5.515624-1.550781-6.9375-4.046875-3.585937-7.539062-5.214843-15.863281-4.734374-24.199219zm-98.96875 50.054688h253.265624c-3.402343 9.582031-12.464843 15.988281-22.632812 16h-208c-10.167969-.011719-19.230469-6.417969-22.632812-16zm402.632812 56h-424c-6.628906 0-12-5.371094-12-12s5.371094-12 12-12h424c6.628906 0 12 5.371094 12 12s-5.371094 12-12 12zm0 0"/><path d="m240 256c70.691406 0 128-57.308594 128-128s-57.308594-128-128-128-128 57.308594-128 128c.082031 70.65625 57.34375 127.917969 128 128zm0-240c61.855469 0 112 50.144531 112 112s-50.144531 112-112 112-112-50.144531-112-112c.066406-61.828125 50.171875-111.933594 112-112zm0 0"/><path d="m189.199219 182.078125 32.542969-27.863281c10.476562 7.332031 24.3125 7.710937 35.167968.960937 10.855469-6.75 16.640625-19.324219 14.699219-31.960937-1.9375-12.636719-11.226563-22.898438-23.609375-26.078125v-65.136719h-16v65.136719c-14.085938 3.636719-23.945312 16.316406-24 30.863281.027344 4.871094 1.183594 9.671875 3.375 14.023438l-32.574219 27.898437zm50.800781-70.078125c8.835938 0 16 7.164062 16 16s-7.164062 16-16 16-16-7.164062-16-16 7.164062-16 16-16zm0 0"/><path d="m192 352h16c0-13.253906-10.746094-24-24-24v16c4.417969 0 8 3.582031 8 8zm0 0"/><path d="m88 376h16c0-4.417969 3.582031-8 8-8v-16c-13.253906 0-24 10.746094-24 24zm0 0"/></g></svg>