<svg height="479pt" viewBox="-63 0 479 479.95657" width="479pt" xmlns="http://www.w3.org/2000/svg"><path d="m152.476562 327.957031h48c79.53125 0 144 64.46875 144 144h-336c0-79.53125 64.472657-144 144-144zm0 0" fill="#acabb1"/><path d="m80.476562 111.957031h192v96h-192zm0 0" fill="#e0e0e2"/><path d="m344.476562 471.957031h-216v-88h88l38.722657-45.199219c54.023437 22.179688 89.292969 74.800782 89.277343 133.199219zm0 0" fill="#e0e0e2"/><path d="m208.476562 415.957031h48v56h-48zm0 0" fill="#57565c"/><g fill="#ffdaaa"><path d="m88.476562 207.957031v48h-16c-8.824218-.027343-15.972656-7.175781-16-16v-24c0-4.417969 3.582032-8 8-8zm0 0"/><path d="m272.476562 207.957031h16c4.421876 0 8 3.582031 8 8v24c-.023437 8.824219-7.171874 15.972657-16 16h-16v-48zm0 0"/><path d="m264.476562 207.957031v56c0 34.121094-19.726562 65.167969-50.617187 79.660157-30.890625 14.496093-67.375 9.828124-93.621094-11.980469-2.09375-1.707031-4.097656-3.523438-6-5.441407-16.527343-16.492187-25.796875-38.890624-25.761719-62.238281v-56zm0 0"/></g><path d="m268.476562 47.957031c19.882813 0 36 16.117188 36 36 0 19.882813-16.117187 36-36 36h-184c-19.878906 0-36-16.117187-36-36 0-19.882812 16.121094-36 36-36h38.320313c7.0625-23.757812 28.898437-40.046875 53.679687-40.046875 24.785157 0 46.621094 16.289063 53.683594 40.046875zm0 0" fill="#a7a9ac"/><path d="m248.132812 327.675781c15.691407-17.515625 24.359376-40.207031 24.34375-63.71875h8c13.257813 0 24-10.746093 24-24v-24c0-8.835937-7.160156-16-16-16h-8v-73.703125c21.066407-6.039062 34.476563-26.65625 31.457032-48.359375-3.019532-21.699219-21.542969-37.875-43.457032-37.9375h-32.6875c-9.789062-24.152343-33.25-39.957031-59.3125-39.957031-26.058593 0-49.519531 15.804688-59.308593 39.957031h-32.691407c-21.910156.0625-40.433593 16.238281-43.453124 37.9375-3.019532 21.703125 10.390624 42.320313 31.453124 48.359375v73.703125h-8c-8.835937 0-16 7.164063-16 16v24c0 13.253907 10.746094 24 24 24h8c-.039062 23.527344 8.632813 46.238281 24.347657 63.75-62.324219 20.453125-104.429688 78.660157-104.347657 144.25 0 4.417969 3.582032 8 8 8h336c4.421876 0 8-3.582031 8-8-.359374-65.453125-42.292968-123.4375-104.34375-144.28125zm40.34375-87.71875c0 4.417969-3.578124 8-8 8h-8v-32h16zm-232-156c0-15.464843 12.539063-28 28-28h38.355469c3.535157 0 6.652344-2.324219 7.664063-5.710937 6.0625-20.34375 24.769531-34.289063 46-34.289063 21.226562 0 39.933594 13.945313 46 34.289063 1.007812 3.375 4.105468 5.695312 7.628906 5.710937h38.351562c15.464844 0 28 12.535157 28 28 0 15.464844-12.535156 28-28 28h-184c-15.460937 0-28-12.535156-28-28zm32 44h176v72h-176zm-16 120c-4.417968 0-8-3.582031-8-8v-24h16v32zm24 8v-40h160v48c.066407 23.785157-10.519531 46.355469-28.855468 61.511719-29.636719 24.625-72.617188 24.625-102.253906 0l-.105469-.046875c-1.871094-1.53125-3.664063-3.15625-5.367188-4.875-15.050781-14.976563-23.484375-35.355469-23.417969-56.589844zm-40.191406 119.832031c17.136719-17.148437 38.554688-29.390624 62.023438-35.457031 34.363281 26.167969 81.96875 26.167969 116.328125 0 2.335937.601563 4.609375 1.359375 6.898437 2.082031l-28.738281 33.542969h-84.320313c-4.417968 0-8 3.582031-8 8v80h-103.765624c1.886718-33.261719 15.976562-64.65625 39.574218-88.167969zm160.191406 88.167969v-40h32v40zm48 0v-48c0-4.417969-3.578124-8-8-8h-48c-4.417968 0-8 3.582031-8 8v48h-64v-72h80c2.335938-.003906 4.554688-1.027343 6.074219-2.800781l34.800781-40.617188c45.390626 21.1875 75.628907 65.429688 78.886719 115.417969zm0 0" fill="#231f20"/></svg>