<svg height="481pt" viewBox="0 -4 481.64949 481" width="481pt" xmlns="http://www.w3.org/2000/svg"><path d="m136 8.328125c70.691406 0 128 57.304687 128 128v224h-256v-224c0-70.695313 57.308594-128 128-128zm0 0" fill="#a78966"/><path d="m208 384.328125h48v80h-48zm0 0" fill="#ebe5dd"/><path d="m304 384.328125h48v80h-48zm0 0" fill="#ebe5dd"/><g fill="#b39a7c"><path d="m408 384.328125v64c-.027344 8.824219-7.175781 15.972656-16 16h-40v-80zm0 0"/><path d="m256 384.328125h48v80h-48zm0 0"/><path d="m208 384.328125v80h-40c-8.824219-.027344-15.972656-7.175781-16-16v-64zm0 0"/></g><path d="m473.679688 237.765625c.023437 15.941406-6.308594 31.230469-17.601563 42.480469l-48.078125 48.082031v56h-256v-200c.042969-69.433594 55.429688-126.171875 124.839844-127.882813 69.410156-1.714843 127.53125 52.21875 131 121.5625 16.847656-1.605468 33.589844 3.964844 46.117187 15.339844 12.53125 11.371094 19.691407 27.496094 19.722657 44.417969zm0 0" fill="#cc7400"/><path d="m8 360.328125h144v48h-144zm0 0" fill="#ebe5dd"/><path d="m461.734375 189.734375c-12.390625-12.398437-29.113281-19.503906-46.636719-19.816406-4.140625-39.742188-25.59375-75.640625-58.632812-98.109375-33.042969-22.472656-74.308594-29.230469-112.792969-18.472656-35.511719-46.125-96.449219-64.519532-151.550781-45.75-55.101563 18.765624-92.1406252 70.53125-92.121094 128.742187v272c0 4.417969 3.582031 8 8 8h136v32c0 13.253906 10.746094 24 24 24h224c13.253906 0 24-10.746094 24-24v-116.6875l45.734375-45.714844c26.554687-26.554687 26.554687-69.605469 0-96.160156zm-325.734375-173.40625c31.84375-.078125 62.402344 12.554687 84.894531 35.09375 2.34375 2.34375 4.59375 4.800781 6.746094 7.34375-50.730469 21.058594-83.753906 70.632813-83.640625 125.5625v168h-128v-143.378906c12.230469-19.695313 36.035156-28.890625 58.328125-22.535157 22.296875 6.359376 37.671875 26.730469 37.671875 49.914063v68h16v-68c.089844-26.539063-15.316406-50.691406-39.421875-61.789063-24.105469-11.101562-52.472656-7.109374-72.578125 10.210938v-48.421875c.074219-66.246094 53.757812-119.925781 120-120zm-120 384v-32h128v32zm144 48v-56h40v64h-32c-4.417969 0-8-3.582031-8-8zm56-56h32v64h-32zm48 0h32v64h-32zm48 64v-64h32v64zm88-8c0 4.417969-3.582031 8-8 8h-32v-64h40zm50.398438-173.746094-48.078126 48.089844c-1.492187 1.503906-2.328124 3.535156-2.320312 5.65625v48h-240v-192c-.191406-63.867187 49.703125-116.679687 113.480469-120.113281 63.773437-3.433594 119.050781 43.714844 125.71875 107.230468-12.730469 2.730469-24.398438 9.082032-33.597657 18.289063l-53.746093 53.746094 11.320312 11.308593 53.734375-53.742187c13.011719-13.726563 32.453125-19.308594 50.765625-14.574219 18.3125 4.738282 32.605469 19.042969 37.332031 37.355469 4.722657 18.316406-.871093 37.753906-14.609374 50.753906zm0 0" fill="#231f20"/></svg>