<?xml version="1.0" standalone="no"?>
<!DOCTYPE svg PUBLIC "-//W3C//DTD SVG 20010904//EN"
 "http://www.w3.org/TR/2001/REC-SVG-20010904/DTD/svg10.dtd">
<svg version="1.0" xmlns="http://www.w3.org/2000/svg"
 width="360.000000pt" height="360.000000pt" viewBox="0 0 360.000000 360.000000"
 preserveAspectRatio="xMidYMid meet">

<g transform="translate(0.000000,360.000000) scale(0.100000,-0.100000)"
fill="#000000" stroke="none">
<path d="M1527 2905 c-228 -43 -400 -136 -550 -295 -60 -64 -88 -104 -127
-183 -69 -143 -80 -206 -80 -480 0 -262 11 -324 85 -474 82 -166 253 -321 445
-404 159 -68 241 -84 440 -84 149 1 187 4 257 23 45 12 87 24 95 27 9 4 13 -4
14 -23 3 -79 13 -101 58 -121 24 -10 76 -52 117 -93 91 -91 108 -101 184 -104
33 -1 83 -5 111 -9 50 -7 52 -7 79 29 26 34 40 41 130 62 11 2 0 -6 -25 -20
-26 -14 -64 -48 -91 -82 -57 -74 -81 -78 -217 -35 -88 27 -203 49 -190 36 3
-3 38 -12 79 -20 41 -8 107 -26 148 -40 113 -38 125 -36 196 39 44 48 80 74
135 101 112 54 148 95 176 200 31 113 8 202 -59 237 -22 11 -66 23 -97 25 -55
5 -59 4 -98 -31 -49 -44 -85 -56 -175 -56 -75 0 -107 -12 -151 -59 -39 -41
-86 -44 -86 -6 0 14 -7 36 -15 49 -15 22 -13 24 40 61 73 50 177 163 225 245
47 79 87 194 99 286 15 113 6 488 -13 559 -82 299 -336 534 -674 622 -124 32
-344 41 -465 18z m-395 -1206 c152 -117 286 -175 465 -205 113 -19 252 -14
351 12 59 15 64 15 83 -2 10 -9 19 -20 19 -24 0 -11 -118 -47 -195 -61 -107
-18 -291 -6 -400 26 -152 45 -282 127 -368 230 -30 37 -62 95 -52 95 2 0 46
-32 97 -71z m1048 -139 c0 -5 -7 -7 -15 -4 -8 4 -15 8 -15 10 0 2 7 4 15 4 8
0 15 -4 15 -10z m796 -603 c-22 -74 -49 -113 -103 -147 -61 -39 -73 -38 -28 2
20 17 46 50 57 72 12 23 31 55 44 72 13 17 27 46 31 65 6 27 8 30 11 11 2 -12
-4 -46 -12 -75z"/>
</g>
</svg>
